<?xml version="1.0" encoding="UTF-8" standalone="no"?><!-- Generator: Gravit.io --><svg xmlns="http://www.w3.org/2000/svg" xmlns:xlink="http://www.w3.org/1999/xlink" style="isolation:isolate" viewBox="558.805 630.502 1134.321 561.646" width="1134.321pt" height="561.646pt"><defs><clipPath id="_clipPath_nHGWp3OzbbE0R9dhFbpIHOguqyu39WoX"><rect x="558.805" y="630.502" width="1134.321" height="561.646"/></clipPath></defs><g clip-path="url(#_clipPath_nHGWp3OzbbE0R9dhFbpIHOguqyu39WoX)"><path d=" M 586.282 1192.148 L 558.805 921.248 L 599.827 921.248 L 618.79 1129.454 L 619.564 1129.454 L 639.688 921.248 L 686.128 921.248 L 706.252 1129.454 L 707.026 1129.454 L 725.989 921.248 L 762.754 921.248 L 735.277 1192.148 L 682.258 1192.148 L 662.908 1009.484 L 662.134 1009.484 L 642.784 1192.148 L 586.282 1192.148 L 586.282 1192.148 Z  M 784.426 1192.148 L 784.426 921.248 L 847.507 921.248 L 847.507 921.248 Q 880.402 921.248 895.495 936.535 L 895.495 936.535 L 895.495 936.535 Q 910.588 951.821 910.588 983.555 L 910.588 983.555 L 910.588 1000.196 L 910.588 1000.196 Q 910.588 1042.379 882.724 1053.602 L 882.724 1053.602 L 882.724 1054.376 L 882.724 1054.376 Q 898.204 1059.02 904.59 1073.339 L 904.59 1073.339 L 904.59 1073.339 Q 910.975 1087.658 910.975 1111.652 L 910.975 1111.652 L 910.975 1159.253 L 910.975 1159.253 Q 910.975 1170.863 911.749 1178.023 L 911.749 1178.023 L 911.749 1178.023 Q 912.523 1185.182 915.619 1192.148 L 915.619 1192.148 L 872.275 1192.148 L 872.275 1192.148 Q 869.953 1185.569 869.179 1179.764 L 869.179 1179.764 L 869.179 1179.764 Q 868.405 1173.959 868.405 1158.866 L 868.405 1158.866 L 868.405 1109.33 L 868.405 1109.33 Q 868.405 1090.754 862.407 1083.401 L 862.407 1083.401 L 862.407 1083.401 Q 856.408 1076.048 841.702 1076.048 L 841.702 1076.048 L 826.996 1076.048 L 826.996 1192.148 L 784.426 1192.148 L 784.426 1192.148 Z  M 826.996 1037.348 L 842.476 1037.348 L 842.476 1037.348 Q 855.247 1037.348 861.632 1030.769 L 861.632 1030.769 L 861.632 1030.769 Q 868.018 1024.19 868.018 1008.71 L 868.018 1008.71 L 868.018 987.812 L 868.018 987.812 Q 868.018 973.106 862.794 966.527 L 862.794 966.527 L 862.794 966.527 Q 857.569 959.948 846.346 959.948 L 846.346 959.948 L 826.996 959.948 L 826.996 1037.348 L 826.996 1037.348 Z  M 929.164 1192.148 L 973.282 921.248 L 1030.945 921.248 L 1075.063 1192.148 L 1032.493 1192.148 L 1024.753 1138.355 L 1024.753 1139.129 L 976.378 1139.129 L 968.638 1192.148 L 929.164 1192.148 L 929.164 1192.148 Z  M 981.409 1102.364 L 1019.722 1102.364 L 1000.759 968.462 L 999.985 968.462 L 981.409 1102.364 L 981.409 1102.364 Z  M 1095.574 1192.148 L 1095.574 921.248 L 1158.268 921.248 L 1158.268 921.248 Q 1190.002 921.248 1205.869 938.276 L 1205.869 938.276 L 1205.869 938.276 Q 1221.736 955.304 1221.736 988.199 L 1221.736 988.199 L 1221.736 1014.902 L 1221.736 1014.902 Q 1221.736 1047.797 1205.869 1064.825 L 1205.869 1064.825 L 1205.869 1064.825 Q 1190.002 1081.853 1158.268 1081.853 L 1158.268 1081.853 L 1138.144 1081.853 L 1138.144 1192.148 L 1095.574 1192.148 L 1095.574 1192.148 Z  M 1138.144 1043.153 L 1158.268 1043.153 L 1158.268 1043.153 Q 1168.717 1043.153 1173.942 1037.348 L 1173.942 1037.348 L 1173.942 1037.348 Q 1179.166 1031.543 1179.166 1017.611 L 1179.166 1017.611 L 1179.166 985.49 L 1179.166 985.49 Q 1179.166 971.558 1173.942 965.753 L 1173.942 965.753 L 1173.942 965.753 Q 1168.717 959.948 1158.268 959.948 L 1158.268 959.948 L 1138.144 959.948 L 1138.144 1043.153 L 1138.144 1043.153 Z  M 1244.956 1192.148 L 1244.956 921.248 L 1307.65 921.248 L 1307.65 921.248 Q 1339.384 921.248 1355.251 938.276 L 1355.251 938.276 L 1355.251 938.276 Q 1371.118 955.304 1371.118 988.199 L 1371.118 988.199 L 1371.118 1014.902 L 1371.118 1014.902 Q 1371.118 1047.797 1355.251 1064.825 L 1355.251 1064.825 L 1355.251 1064.825 Q 1339.384 1081.853 1307.65 1081.853 L 1307.65 1081.853 L 1287.526 1081.853 L 1287.526 1192.148 L 1244.956 1192.148 L 1244.956 1192.148 Z  M 1287.526 1043.153 L 1307.65 1043.153 L 1307.65 1043.153 Q 1318.099 1043.153 1323.324 1037.348 L 1323.324 1037.348 L 1323.324 1037.348 Q 1328.548 1031.543 1328.548 1017.611 L 1328.548 1017.611 L 1328.548 985.49 L 1328.548 985.49 Q 1328.548 971.558 1323.324 965.753 L 1323.324 965.753 L 1323.324 965.753 Q 1318.099 959.948 1307.65 959.948 L 1307.65 959.948 L 1287.526 959.948 L 1287.526 1043.153 L 1287.526 1043.153 Z  M 1394.338 1192.148 L 1394.338 921.248 L 1510.438 921.248 L 1510.438 959.948 L 1436.908 959.948 L 1436.908 1031.543 L 1495.345 1031.543 L 1495.345 1070.243 L 1436.908 1070.243 L 1436.908 1153.448 L 1510.438 1153.448 L 1510.438 1192.148 L 1394.338 1192.148 L 1394.338 1192.148 Z  M 1534.819 1192.148 L 1534.819 921.248 L 1597.9 921.248 L 1597.9 921.248 Q 1630.795 921.248 1645.888 936.535 L 1645.888 936.535 L 1645.888 936.535 Q 1660.981 951.821 1660.981 983.555 L 1660.981 983.555 L 1660.981 1000.196 L 1660.981 1000.196 Q 1660.981 1042.379 1633.117 1053.602 L 1633.117 1053.602 L 1633.117 1054.376 L 1633.117 1054.376 Q 1648.597 1059.02 1654.983 1073.339 L 1654.983 1073.339 L 1654.983 1073.339 Q 1661.368 1087.658 1661.368 1111.652 L 1661.368 1111.652 L 1661.368 1159.253 L 1661.368 1159.253 Q 1661.368 1170.863 1662.142 1178.023 L 1662.142 1178.023 L 1662.142 1178.023 Q 1662.916 1185.182 1666.012 1192.148 L 1666.012 1192.148 L 1622.668 1192.148 L 1622.668 1192.148 Q 1620.346 1185.569 1619.572 1179.764 L 1619.572 1179.764 L 1619.572 1179.764 Q 1618.798 1173.959 1618.798 1158.866 L 1618.798 1158.866 L 1618.798 1109.33 L 1618.798 1109.33 Q 1618.798 1090.754 1612.8 1083.401 L 1612.8 1083.401 L 1612.8 1083.401 Q 1606.801 1076.048 1592.095 1076.048 L 1592.095 1076.048 L 1577.389 1076.048 L 1577.389 1192.148 L 1534.819 1192.148 L 1534.819 1192.148 Z  M 1577.389 1037.348 L 1592.869 1037.348 L 1592.869 1037.348 Q 1605.64 1037.348 1612.026 1030.769 L 1612.026 1030.769 L 1612.026 1030.769 Q 1618.411 1024.19 1618.411 1008.71 L 1618.411 1008.71 L 1618.411 987.812 L 1618.411 987.812 Q 1618.411 973.106 1613.187 966.527 L 1613.187 966.527 L 1613.187 966.527 Q 1607.962 959.948 1596.739 959.948 L 1596.739 959.948 L 1577.389 959.948 L 1577.389 1037.348 L 1577.389 1037.348 Z " fill="rgb(71,74,210)"/><path d=" M 613.956 854.422 L 613.956 854.422 Q 589.387 854.422 576.481 840.427 L 576.481 840.427 L 576.481 840.427 Q 563.574 826.432 563.574 800.93 L 563.574 800.93 L 563.574 683.994 L 563.574 683.994 Q 563.574 658.492 576.481 644.497 L 576.481 644.497 L 576.481 644.497 Q 589.387 630.502 613.956 630.502 L 613.956 630.502 L 613.956 630.502 Q 638.525 630.502 651.432 644.497 L 651.432 644.497 L 651.432 644.497 Q 664.338 658.492 664.338 683.994 L 664.338 683.994 L 664.338 707.008 L 631.994 707.008 L 631.994 681.817 L 631.994 681.817 Q 631.994 661.602 614.889 661.602 L 614.889 661.602 L 614.889 661.602 Q 597.784 661.602 597.784 681.817 L 597.784 681.817 L 597.784 803.418 L 597.784 803.418 Q 597.784 823.322 614.889 823.322 L 614.889 823.322 L 614.889 823.322 Q 631.994 823.322 631.994 803.418 L 631.994 803.418 L 631.994 770.141 L 664.338 770.141 L 664.338 800.93 L 664.338 800.93 Q 664.338 826.432 651.432 840.427 L 651.432 840.427 L 651.432 840.427 Q 638.525 854.422 613.956 854.422 L 613.956 854.422 L 613.956 854.422 Z  M 734.935 854.422 L 734.935 854.422 Q 709.744 854.422 696.371 840.116 L 696.371 840.116 L 696.371 840.116 Q 682.998 825.81 682.998 799.686 L 682.998 799.686 L 682.998 685.238 L 682.998 685.238 Q 682.998 659.114 696.371 644.808 L 696.371 644.808 L 696.371 644.808 Q 709.744 630.502 734.935 630.502 L 734.935 630.502 L 734.935 630.502 Q 760.126 630.502 773.499 644.808 L 773.499 644.808 L 773.499 644.808 Q 786.872 659.114 786.872 685.238 L 786.872 685.238 L 786.872 799.686 L 786.872 799.686 Q 786.872 825.81 773.499 840.116 L 773.499 840.116 L 773.499 840.116 Q 760.126 854.422 734.935 854.422 L 734.935 854.422 L 734.935 854.422 Z  M 734.935 823.322 L 734.935 823.322 Q 752.662 823.322 752.662 801.863 L 752.662 801.863 L 752.662 683.061 L 752.662 683.061 Q 752.662 661.602 734.935 661.602 L 734.935 661.602 L 734.935 661.602 Q 717.208 661.602 717.208 683.061 L 717.208 683.061 L 717.208 801.863 L 717.208 801.863 Q 717.208 823.322 734.935 823.322 L 734.935 823.322 L 734.935 823.322 Z  M 809.886 851.312 L 809.886 633.612 L 852.804 633.612 L 886.081 763.921 L 886.703 763.921 L 886.703 633.612 L 917.181 633.612 L 917.181 851.312 L 882.038 851.312 L 840.986 692.391 L 840.364 692.391 L 840.364 851.312 L 809.886 851.312 L 809.886 851.312 Z  M 969.429 851.312 L 969.429 664.712 L 933.664 664.712 L 933.664 633.612 L 1039.404 633.612 L 1039.404 664.712 L 1003.639 664.712 L 1003.639 851.312 L 969.429 851.312 L 969.429 851.312 Z  M 1032.562 851.312 L 1068.016 633.612 L 1114.355 633.612 L 1149.809 851.312 L 1115.599 851.312 L 1109.379 808.083 L 1109.379 808.705 L 1070.504 808.705 L 1064.284 851.312 L 1032.562 851.312 L 1032.562 851.312 Z  M 1074.547 779.16 L 1105.336 779.16 L 1090.097 671.554 L 1089.475 671.554 L 1074.547 779.16 L 1074.547 779.16 Z  M 1166.292 851.312 L 1166.292 633.612 L 1200.502 633.612 L 1200.502 851.312 L 1166.292 851.312 L 1166.292 851.312 Z  M 1226.004 851.312 L 1226.004 633.612 L 1268.922 633.612 L 1302.199 763.921 L 1302.821 763.921 L 1302.821 633.612 L 1333.299 633.612 L 1333.299 851.312 L 1298.156 851.312 L 1257.104 692.391 L 1256.482 692.391 L 1256.482 851.312 L 1226.004 851.312 L 1226.004 851.312 Z  M 1358.801 851.312 L 1358.801 633.612 L 1452.101 633.612 L 1452.101 664.712 L 1393.011 664.712 L 1393.011 722.247 L 1439.972 722.247 L 1439.972 753.347 L 1393.011 753.347 L 1393.011 820.212 L 1452.101 820.212 L 1452.101 851.312 L 1358.801 851.312 L 1358.801 851.312 Z  M 1471.694 851.312 L 1471.694 633.612 L 1522.387 633.612 L 1522.387 633.612 Q 1548.822 633.612 1560.951 645.897 L 1560.951 645.897 L 1560.951 645.897 Q 1573.08 658.181 1573.08 683.683 L 1573.08 683.683 L 1573.08 697.056 L 1573.08 697.056 Q 1573.08 730.955 1550.688 739.974 L 1550.688 739.974 L 1550.688 740.596 L 1550.688 740.596 Q 1563.128 744.328 1568.26 755.835 L 1568.26 755.835 L 1568.26 755.835 Q 1573.391 767.342 1573.391 786.624 L 1573.391 786.624 L 1573.391 824.877 L 1573.391 824.877 Q 1573.391 834.207 1574.013 839.961 L 1574.013 839.961 L 1574.013 839.961 Q 1574.635 845.714 1577.123 851.312 L 1577.123 851.312 L 1542.291 851.312 L 1542.291 851.312 Q 1540.425 846.025 1539.803 841.36 L 1539.803 841.36 L 1539.803 841.36 Q 1539.181 836.695 1539.181 824.566 L 1539.181 824.566 L 1539.181 784.758 L 1539.181 784.758 Q 1539.181 769.83 1534.361 763.921 L 1534.361 763.921 L 1534.361 763.921 Q 1529.54 758.012 1517.722 758.012 L 1517.722 758.012 L 1505.904 758.012 L 1505.904 851.312 L 1471.694 851.312 L 1471.694 851.312 Z  M 1505.904 726.912 L 1518.344 726.912 L 1518.344 726.912 Q 1528.607 726.912 1533.739 721.625 L 1533.739 721.625 L 1533.739 721.625 Q 1538.87 716.338 1538.87 703.898 L 1538.87 703.898 L 1538.87 687.104 L 1538.87 687.104 Q 1538.87 675.286 1534.672 669.999 L 1534.672 669.999 L 1534.672 669.999 Q 1530.473 664.712 1521.454 664.712 L 1521.454 664.712 L 1505.904 664.712 L 1505.904 726.912 L 1505.904 726.912 Z  M 1641.5 854.422 L 1641.5 854.422 Q 1616.62 854.422 1603.869 840.272 L 1603.869 840.272 L 1603.869 840.272 Q 1591.118 826.121 1591.118 799.686 L 1591.118 799.686 L 1591.118 787.246 L 1623.462 787.246 L 1623.462 802.174 L 1623.462 802.174 Q 1623.462 823.322 1641.189 823.322 L 1641.189 823.322 L 1641.189 823.322 Q 1649.897 823.322 1654.407 818.191 L 1654.407 818.191 L 1654.407 818.191 Q 1658.916 813.059 1658.916 801.552 L 1658.916 801.552 L 1658.916 801.552 Q 1658.916 787.868 1652.696 777.45 L 1652.696 777.45 L 1652.696 777.45 Q 1646.476 767.031 1629.682 752.414 L 1629.682 752.414 L 1629.682 752.414 Q 1608.534 733.754 1600.137 718.671 L 1600.137 718.671 L 1600.137 718.671 Q 1591.74 703.587 1591.74 684.616 L 1591.74 684.616 L 1591.74 684.616 Q 1591.74 658.803 1604.802 644.653 L 1604.802 644.653 L 1604.802 644.653 Q 1617.864 630.502 1642.744 630.502 L 1642.744 630.502 L 1642.744 630.502 Q 1667.313 630.502 1679.909 644.653 L 1679.909 644.653 L 1679.909 644.653 Q 1692.504 658.803 1692.504 685.238 L 1692.504 685.238 L 1692.504 694.257 L 1660.16 694.257 L 1660.16 683.061 L 1660.16 683.061 Q 1660.16 671.865 1655.806 666.734 L 1655.806 666.734 L 1655.806 666.734 Q 1651.452 661.602 1643.055 661.602 L 1643.055 661.602 L 1643.055 661.602 Q 1625.95 661.602 1625.95 682.439 L 1625.95 682.439 L 1625.95 682.439 Q 1625.95 694.257 1632.326 704.52 L 1632.326 704.52 L 1632.326 704.52 Q 1638.701 714.783 1655.495 729.4 L 1655.495 729.4 L 1655.495 729.4 Q 1676.954 748.06 1685.04 763.299 L 1685.04 763.299 L 1685.04 763.299 Q 1693.126 778.538 1693.126 799.064 L 1693.126 799.064 L 1693.126 799.064 Q 1693.126 825.81 1679.909 840.116 L 1679.909 840.116 L 1679.909 840.116 Q 1666.691 854.422 1641.5 854.422 L 1641.5 854.422 L 1641.5 854.422 Z " fill="rgb(111,111,136)"/></g></svg>